<?xml version="1.0" standalone="no"?>
<!DOCTYPE svg PUBLIC "-//W3C//DTD SVG 20010904//EN"
 "http://www.w3.org/TR/2001/REC-SVG-20010904/DTD/svg10.dtd">
<svg version="1.0" xmlns="http://www.w3.org/2000/svg"
 width="1024.000000pt" height="1024.000000pt" viewBox="0 0 1024.000000 1024.000000"
 preserveAspectRatio="xMidYMid meet">
<metadata>
Created by potrace 1.14, written by Peter Selinger 2001-2017
</metadata>
<g transform="translate(0.000000,1024.000000) scale(0.100000,-0.100000)"
fill="#000000" stroke="none">
<path d="M2590 9463 c-215 -29 -360 -99 -498 -243 -102 -106 -168 -216 -204
-345 l-23 -80 -2 -3655 c-3 -4004 -7 -3707 56 -3864 67 -167 238 -349 401
-425 93 -43 136 -55 241 -70 78 -10 5095 -7 5159 4 76 13 197 61 274 109 89
56 196 159 252 243 45 66 104 198 111 248 2 16 9 48 13 70 13 56 12 5845 -1
5910 -5 28 -11 59 -13 70 -12 62 -64 171 -129 269 -20 30 -32 43 -807 820
-410 411 -772 767 -805 791 -112 80 -234 128 -360 143 -72 8 -3603 13 -3665 5z
m2804 -1713 c-2 -999 -3 -978 61 -1080 63 -100 174 -173 285 -186 30 -4 453
-7 940 -8 l885 -1 1 -2435 c0 -1339 -1 -2439 -3 -2445 -4 -11 -4870 -11 -4881
0 -4 4 -7 1591 -7 3528 l0 3522 24 5 c14 3 626 5 1360 5 l1336 0 -1 -905z
m1783 -135 l320 -320 -643 0 -644 0 -1 45 c0 55 0 1185 1 1219 0 19 63 -39
324 -300 178 -178 467 -468 643 -644z"/>
<path d="M3606 5448 c-43 -16 -76 -48 -97 -93 -16 -35 -18 -72 -19 -322 0
-181 4 -298 11 -327 14 -56 59 -102 114 -117 28 -8 461 -12 1515 -11 1609 0
1512 -3 1571 56 44 44 48 80 48 389 0 235 -2 296 -15 325 -20 50 -42 72 -90
93 -40 18 -103 19 -1525 18 -1008 0 -1493 -4 -1513 -11z"/>
<path d="M3679 4030 c-102 -8 -145 -36 -176 -115 -17 -44 -17 -597 0 -647 17
-49 43 -77 92 -99 38 -18 106 -18 1526 -19 l1485 0 50 25 c87 43 88 51 92 395
2 203 0 308 -8 337 -15 50 -59 98 -107 114 -27 8 -395 12 -1457 13 -782 0
-1455 -1 -1497 -4z"/>
</g>
</svg>
